<svg xmlns="http://www.w3.org/2000/svg" width="36.265" height="39.053" viewBox="0 0 35.343 38.06">
  <defs>
    <style>
      .cls-1 {
        fill: #80407a;
        fill-rule: evenodd;
      }
    </style>
  </defs>
  <path id="Timer" class="cls-1" d="M445.135,3890.04a1.29,1.29,0,0,0,.266-0.43l1.6,1.62a1.189,1.189,0,0,0,1.665,0,1.207,1.207,0,0,0,0-1.69l-4.71-4.75a1.159,1.159,0,0,0-1.665,0,1.2,1.2,0,0,0,0,1.68l1.6,1.62a1.146,1.146,0,0,0-.425.27l-1.146,1.15a17.486,17.486,0,0,0-9.8-3.82v-1.25a1.177,1.177,0,1,0-2.354,0v1.25a17.762,17.762,0,1,0,13.892,5.43Zm-13.784,28.89a15.461,15.461,0,1,1,15.307-15.46A15.4,15.4,0,0,1,431.351,3918.93Zm1.177-18.81v-8.55a1.177,1.177,0,1,0-2.354,0v8.55A3.532,3.532,0,1,0,432.528,3900.12Zm0,4.54h-2.354v-2.38h2.354v2.38Z" transform="translate(-413.688 -3883.25)"/>
</svg>
